<mxfile host="app.diagrams.net" modified="2021-03-31T13:43:17.588Z" agent="5.0 (Windows NT 10.0; Win64; x64) AppleWebKit/537.36 (KHTML, like Gecko) Chrome/89.0.4389.90 Safari/537.36" etag="LTMQBlzordn4LlYJHL3L" version="14.5.0" type="github">
  <diagram id="C5RBs43oDa-KdzZeNtuy" name="Page-1">
    <mxGraphModel dx="710" dy="359" grid="1" gridSize="10" guides="1" tooltips="1" connect="1" arrows="1" fold="1" page="1" pageScale="1" pageWidth="827" pageHeight="1169" math="0" shadow="0">
      <root>
        <mxCell id="WIyWlLk6GJQsqaUBKTNV-0" />
        <mxCell id="WIyWlLk6GJQsqaUBKTNV-1" parent="WIyWlLk6GJQsqaUBKTNV-0" />
        <mxCell id="4Hm4KgzLQBeNy6C8HnnK-23" style="edgeStyle=orthogonalEdgeStyle;rounded=0;orthogonalLoop=1;jettySize=auto;html=1;" edge="1" parent="WIyWlLk6GJQsqaUBKTNV-1" source="4Hm4KgzLQBeNy6C8HnnK-0" target="4Hm4KgzLQBeNy6C8HnnK-1">
          <mxGeometry relative="1" as="geometry">
            <Array as="points">
              <mxPoint x="180" y="110" />
              <mxPoint x="180" y="110" />
            </Array>
          </mxGeometry>
        </mxCell>
        <mxCell id="4Hm4KgzLQBeNy6C8HnnK-0" value="User" style="shape=umlActor;verticalLabelPosition=bottom;verticalAlign=top;html=1;outlineConnect=0;" vertex="1" parent="WIyWlLk6GJQsqaUBKTNV-1">
          <mxGeometry x="110" y="60" width="50" height="100" as="geometry" />
        </mxCell>
        <mxCell id="4Hm4KgzLQBeNy6C8HnnK-45" style="edgeStyle=orthogonalEdgeStyle;rounded=0;orthogonalLoop=1;jettySize=auto;html=1;entryX=0;entryY=0.5;entryDx=0;entryDy=0;" edge="1" parent="WIyWlLk6GJQsqaUBKTNV-1" source="4Hm4KgzLQBeNy6C8HnnK-1" target="4Hm4KgzLQBeNy6C8HnnK-7">
          <mxGeometry relative="1" as="geometry" />
        </mxCell>
        <mxCell id="4Hm4KgzLQBeNy6C8HnnK-46" style="edgeStyle=orthogonalEdgeStyle;rounded=0;orthogonalLoop=1;jettySize=auto;html=1;entryX=0;entryY=0.5;entryDx=0;entryDy=0;" edge="1" parent="WIyWlLk6GJQsqaUBKTNV-1" source="4Hm4KgzLQBeNy6C8HnnK-1" target="4Hm4KgzLQBeNy6C8HnnK-9">
          <mxGeometry relative="1" as="geometry" />
        </mxCell>
        <mxCell id="4Hm4KgzLQBeNy6C8HnnK-47" style="edgeStyle=orthogonalEdgeStyle;rounded=0;orthogonalLoop=1;jettySize=auto;html=1;entryX=0;entryY=0.75;entryDx=0;entryDy=0;" edge="1" parent="WIyWlLk6GJQsqaUBKTNV-1" source="4Hm4KgzLQBeNy6C8HnnK-1" target="4Hm4KgzLQBeNy6C8HnnK-10">
          <mxGeometry relative="1" as="geometry" />
        </mxCell>
        <mxCell id="4Hm4KgzLQBeNy6C8HnnK-48" style="edgeStyle=orthogonalEdgeStyle;rounded=0;orthogonalLoop=1;jettySize=auto;html=1;entryX=0;entryY=0.75;entryDx=0;entryDy=0;" edge="1" parent="WIyWlLk6GJQsqaUBKTNV-1" source="4Hm4KgzLQBeNy6C8HnnK-1" target="4Hm4KgzLQBeNy6C8HnnK-11">
          <mxGeometry relative="1" as="geometry" />
        </mxCell>
        <mxCell id="4Hm4KgzLQBeNy6C8HnnK-49" style="edgeStyle=orthogonalEdgeStyle;rounded=0;orthogonalLoop=1;jettySize=auto;html=1;entryX=0;entryY=0.25;entryDx=0;entryDy=0;" edge="1" parent="WIyWlLk6GJQsqaUBKTNV-1" source="4Hm4KgzLQBeNy6C8HnnK-1" target="4Hm4KgzLQBeNy6C8HnnK-12">
          <mxGeometry relative="1" as="geometry" />
        </mxCell>
        <mxCell id="4Hm4KgzLQBeNy6C8HnnK-50" style="edgeStyle=orthogonalEdgeStyle;rounded=0;orthogonalLoop=1;jettySize=auto;html=1;entryX=0;entryY=0.5;entryDx=0;entryDy=0;" edge="1" parent="WIyWlLk6GJQsqaUBKTNV-1" source="4Hm4KgzLQBeNy6C8HnnK-1" target="4Hm4KgzLQBeNy6C8HnnK-13">
          <mxGeometry relative="1" as="geometry" />
        </mxCell>
        <mxCell id="4Hm4KgzLQBeNy6C8HnnK-51" style="edgeStyle=orthogonalEdgeStyle;rounded=0;orthogonalLoop=1;jettySize=auto;html=1;entryX=0;entryY=0.25;entryDx=0;entryDy=0;" edge="1" parent="WIyWlLk6GJQsqaUBKTNV-1" source="4Hm4KgzLQBeNy6C8HnnK-1" target="4Hm4KgzLQBeNy6C8HnnK-14">
          <mxGeometry relative="1" as="geometry" />
        </mxCell>
        <mxCell id="4Hm4KgzLQBeNy6C8HnnK-57" style="edgeStyle=orthogonalEdgeStyle;rounded=0;orthogonalLoop=1;jettySize=auto;html=1;entryX=0;entryY=0.5;entryDx=0;entryDy=0;" edge="1" parent="WIyWlLk6GJQsqaUBKTNV-1" source="4Hm4KgzLQBeNy6C8HnnK-1" target="4Hm4KgzLQBeNy6C8HnnK-53">
          <mxGeometry relative="1" as="geometry" />
        </mxCell>
        <mxCell id="4Hm4KgzLQBeNy6C8HnnK-1" value="Login" style="rounded=0;whiteSpace=wrap;html=1;" vertex="1" parent="WIyWlLk6GJQsqaUBKTNV-1">
          <mxGeometry x="270" y="80" width="120" height="60" as="geometry" />
        </mxCell>
        <mxCell id="4Hm4KgzLQBeNy6C8HnnK-7" value="Logout" style="rounded=0;whiteSpace=wrap;html=1;" vertex="1" parent="WIyWlLk6GJQsqaUBKTNV-1">
          <mxGeometry x="500" y="90" width="120" height="40" as="geometry" />
        </mxCell>
        <mxCell id="4Hm4KgzLQBeNy6C8HnnK-9" value="Edit User" style="rounded=0;whiteSpace=wrap;html=1;" vertex="1" parent="WIyWlLk6GJQsqaUBKTNV-1">
          <mxGeometry x="500" y="140" width="120" height="40" as="geometry" />
        </mxCell>
        <mxCell id="4Hm4KgzLQBeNy6C8HnnK-10" value="Check Balance" style="rounded=0;whiteSpace=wrap;html=1;" vertex="1" parent="WIyWlLk6GJQsqaUBKTNV-1">
          <mxGeometry x="500" y="190" width="120" height="40" as="geometry" />
        </mxCell>
        <mxCell id="4Hm4KgzLQBeNy6C8HnnK-37" style="edgeStyle=orthogonalEdgeStyle;rounded=0;orthogonalLoop=1;jettySize=auto;html=1;entryX=0.696;entryY=-0.05;entryDx=0;entryDy=0;entryPerimeter=0;" edge="1" parent="WIyWlLk6GJQsqaUBKTNV-1" source="4Hm4KgzLQBeNy6C8HnnK-11" target="4Hm4KgzLQBeNy6C8HnnK-29">
          <mxGeometry relative="1" as="geometry">
            <Array as="points">
              <mxPoint x="638" y="260" />
            </Array>
          </mxGeometry>
        </mxCell>
        <mxCell id="4Hm4KgzLQBeNy6C8HnnK-41" style="edgeStyle=orthogonalEdgeStyle;rounded=0;orthogonalLoop=1;jettySize=auto;html=1;entryX=0.854;entryY=-0.05;entryDx=0;entryDy=0;entryPerimeter=0;" edge="1" parent="WIyWlLk6GJQsqaUBKTNV-1" source="4Hm4KgzLQBeNy6C8HnnK-11" target="4Hm4KgzLQBeNy6C8HnnK-28">
          <mxGeometry relative="1" as="geometry" />
        </mxCell>
        <mxCell id="4Hm4KgzLQBeNy6C8HnnK-11" value="Insert Money" style="rounded=0;whiteSpace=wrap;html=1;" vertex="1" parent="WIyWlLk6GJQsqaUBKTNV-1">
          <mxGeometry x="500" y="240" width="120" height="40" as="geometry" />
        </mxCell>
        <mxCell id="4Hm4KgzLQBeNy6C8HnnK-38" style="edgeStyle=orthogonalEdgeStyle;rounded=0;orthogonalLoop=1;jettySize=auto;html=1;entryX=0.911;entryY=-0.017;entryDx=0;entryDy=0;entryPerimeter=0;" edge="1" parent="WIyWlLk6GJQsqaUBKTNV-1" source="4Hm4KgzLQBeNy6C8HnnK-12" target="4Hm4KgzLQBeNy6C8HnnK-29">
          <mxGeometry relative="1" as="geometry">
            <Array as="points">
              <mxPoint x="696" y="310" />
            </Array>
          </mxGeometry>
        </mxCell>
        <mxCell id="4Hm4KgzLQBeNy6C8HnnK-42" style="edgeStyle=orthogonalEdgeStyle;rounded=0;orthogonalLoop=1;jettySize=auto;html=1;entryX=0.792;entryY=-0.05;entryDx=0;entryDy=0;entryPerimeter=0;" edge="1" parent="WIyWlLk6GJQsqaUBKTNV-1" source="4Hm4KgzLQBeNy6C8HnnK-12" target="4Hm4KgzLQBeNy6C8HnnK-28">
          <mxGeometry relative="1" as="geometry" />
        </mxCell>
        <mxCell id="4Hm4KgzLQBeNy6C8HnnK-12" value="Withdraw Money" style="rounded=0;whiteSpace=wrap;html=1;" vertex="1" parent="WIyWlLk6GJQsqaUBKTNV-1">
          <mxGeometry x="500" y="290" width="120" height="40" as="geometry" />
        </mxCell>
        <mxCell id="4Hm4KgzLQBeNy6C8HnnK-39" style="edgeStyle=orthogonalEdgeStyle;rounded=0;orthogonalLoop=1;jettySize=auto;html=1;entryX=0.97;entryY=-0.033;entryDx=0;entryDy=0;entryPerimeter=0;" edge="1" parent="WIyWlLk6GJQsqaUBKTNV-1" source="4Hm4KgzLQBeNy6C8HnnK-13" target="4Hm4KgzLQBeNy6C8HnnK-29">
          <mxGeometry relative="1" as="geometry">
            <Array as="points">
              <mxPoint x="712" y="360" />
            </Array>
          </mxGeometry>
        </mxCell>
        <mxCell id="4Hm4KgzLQBeNy6C8HnnK-43" style="edgeStyle=orthogonalEdgeStyle;rounded=0;orthogonalLoop=1;jettySize=auto;html=1;entryX=0.75;entryY=0;entryDx=0;entryDy=0;" edge="1" parent="WIyWlLk6GJQsqaUBKTNV-1" source="4Hm4KgzLQBeNy6C8HnnK-13" target="4Hm4KgzLQBeNy6C8HnnK-28">
          <mxGeometry relative="1" as="geometry">
            <Array as="points">
              <mxPoint x="345" y="350" />
            </Array>
          </mxGeometry>
        </mxCell>
        <mxCell id="4Hm4KgzLQBeNy6C8HnnK-13" value="Internal Transfer Money" style="rounded=0;whiteSpace=wrap;html=1;" vertex="1" parent="WIyWlLk6GJQsqaUBKTNV-1">
          <mxGeometry x="500" y="340" width="120" height="40" as="geometry" />
        </mxCell>
        <mxCell id="4Hm4KgzLQBeNy6C8HnnK-40" style="edgeStyle=orthogonalEdgeStyle;rounded=0;orthogonalLoop=1;jettySize=auto;html=1;entryX=0.656;entryY=0.017;entryDx=0;entryDy=0;entryPerimeter=0;" edge="1" parent="WIyWlLk6GJQsqaUBKTNV-1" source="4Hm4KgzLQBeNy6C8HnnK-14" target="4Hm4KgzLQBeNy6C8HnnK-29">
          <mxGeometry relative="1" as="geometry">
            <Array as="points">
              <mxPoint x="627" y="410" />
            </Array>
          </mxGeometry>
        </mxCell>
        <mxCell id="4Hm4KgzLQBeNy6C8HnnK-44" style="edgeStyle=orthogonalEdgeStyle;rounded=0;orthogonalLoop=1;jettySize=auto;html=1;entryX=0.677;entryY=-0.083;entryDx=0;entryDy=0;entryPerimeter=0;" edge="1" parent="WIyWlLk6GJQsqaUBKTNV-1" source="4Hm4KgzLQBeNy6C8HnnK-14" target="4Hm4KgzLQBeNy6C8HnnK-28">
          <mxGeometry relative="1" as="geometry" />
        </mxCell>
        <mxCell id="4Hm4KgzLQBeNy6C8HnnK-14" value="External Transfer Money" style="rounded=0;whiteSpace=wrap;html=1;" vertex="1" parent="WIyWlLk6GJQsqaUBKTNV-1">
          <mxGeometry x="500" y="390" width="120" height="40" as="geometry" />
        </mxCell>
        <mxCell id="4Hm4KgzLQBeNy6C8HnnK-30" style="edgeStyle=orthogonalEdgeStyle;rounded=0;orthogonalLoop=1;jettySize=auto;html=1;entryX=0.5;entryY=0;entryDx=0;entryDy=0;" edge="1" parent="WIyWlLk6GJQsqaUBKTNV-1" source="4Hm4KgzLQBeNy6C8HnnK-24" target="4Hm4KgzLQBeNy6C8HnnK-28">
          <mxGeometry relative="1" as="geometry" />
        </mxCell>
        <mxCell id="4Hm4KgzLQBeNy6C8HnnK-24" value="Sign Up" style="rounded=0;whiteSpace=wrap;html=1;" vertex="1" parent="WIyWlLk6GJQsqaUBKTNV-1">
          <mxGeometry x="270" y="160" width="120" height="60" as="geometry" />
        </mxCell>
        <mxCell id="4Hm4KgzLQBeNy6C8HnnK-27" value="" style="endArrow=classic;html=1;entryX=0;entryY=0.5;entryDx=0;entryDy=0;" edge="1" parent="WIyWlLk6GJQsqaUBKTNV-1" target="4Hm4KgzLQBeNy6C8HnnK-24">
          <mxGeometry width="50" height="50" relative="1" as="geometry">
            <mxPoint x="160" y="110" as="sourcePoint" />
            <mxPoint x="270" y="170" as="targetPoint" />
          </mxGeometry>
        </mxCell>
        <mxCell id="4Hm4KgzLQBeNy6C8HnnK-28" value="user.csv" style="rounded=0;whiteSpace=wrap;html=1;" vertex="1" parent="WIyWlLk6GJQsqaUBKTNV-1">
          <mxGeometry x="150" y="500" width="260" height="60" as="geometry" />
        </mxCell>
        <mxCell id="4Hm4KgzLQBeNy6C8HnnK-29" value="user_operations.csv" style="rounded=0;whiteSpace=wrap;html=1;" vertex="1" parent="WIyWlLk6GJQsqaUBKTNV-1">
          <mxGeometry x="450" y="500" width="270" height="60" as="geometry" />
        </mxCell>
        <mxCell id="4Hm4KgzLQBeNy6C8HnnK-33" style="edgeStyle=orthogonalEdgeStyle;rounded=0;orthogonalLoop=1;jettySize=auto;html=1;entryX=0.5;entryY=0;entryDx=0;entryDy=0;" edge="1" parent="WIyWlLk6GJQsqaUBKTNV-1" target="4Hm4KgzLQBeNy6C8HnnK-29">
          <mxGeometry relative="1" as="geometry">
            <mxPoint x="330" y="360" as="sourcePoint" />
            <mxPoint x="290" y="510" as="targetPoint" />
            <Array as="points">
              <mxPoint x="390" y="360" />
              <mxPoint x="390" y="490" />
              <mxPoint x="585" y="490" />
            </Array>
          </mxGeometry>
        </mxCell>
        <mxCell id="4Hm4KgzLQBeNy6C8HnnK-34" style="edgeStyle=orthogonalEdgeStyle;rounded=0;orthogonalLoop=1;jettySize=auto;html=1;entryX=0.75;entryY=0;entryDx=0;entryDy=0;" edge="1" parent="WIyWlLk6GJQsqaUBKTNV-1" target="4Hm4KgzLQBeNy6C8HnnK-29">
          <mxGeometry relative="1" as="geometry">
            <mxPoint x="620" y="100" as="sourcePoint" />
            <mxPoint x="875" y="240" as="targetPoint" />
            <Array as="points">
              <mxPoint x="653" y="100" />
              <mxPoint x="653" y="200" />
            </Array>
          </mxGeometry>
        </mxCell>
        <mxCell id="4Hm4KgzLQBeNy6C8HnnK-35" style="edgeStyle=orthogonalEdgeStyle;rounded=0;orthogonalLoop=1;jettySize=auto;html=1;exitX=1;exitY=0.5;exitDx=0;exitDy=0;" edge="1" parent="WIyWlLk6GJQsqaUBKTNV-1" source="4Hm4KgzLQBeNy6C8HnnK-9">
          <mxGeometry relative="1" as="geometry">
            <mxPoint x="630" y="160" as="sourcePoint" />
            <mxPoint x="663" y="500" as="targetPoint" />
            <Array as="points">
              <mxPoint x="663" y="160" />
            </Array>
          </mxGeometry>
        </mxCell>
        <mxCell id="4Hm4KgzLQBeNy6C8HnnK-36" style="edgeStyle=orthogonalEdgeStyle;rounded=0;orthogonalLoop=1;jettySize=auto;html=1;exitX=1;exitY=0.5;exitDx=0;exitDy=0;" edge="1" parent="WIyWlLk6GJQsqaUBKTNV-1" source="4Hm4KgzLQBeNy6C8HnnK-10">
          <mxGeometry relative="1" as="geometry">
            <mxPoint x="610" y="220" as="sourcePoint" />
            <mxPoint x="680" y="500" as="targetPoint" />
            <Array as="points">
              <mxPoint x="620" y="220" />
              <mxPoint x="680" y="220" />
            </Array>
          </mxGeometry>
        </mxCell>
        <mxCell id="4Hm4KgzLQBeNy6C8HnnK-52" value="Bank Officer" style="shape=umlActor;verticalLabelPosition=bottom;verticalAlign=top;html=1;outlineConnect=0;" vertex="1" parent="WIyWlLk6GJQsqaUBKTNV-1">
          <mxGeometry x="750" y="10" width="50" height="100" as="geometry" />
        </mxCell>
        <mxCell id="4Hm4KgzLQBeNy6C8HnnK-56" style="edgeStyle=orthogonalEdgeStyle;rounded=0;orthogonalLoop=1;jettySize=auto;html=1;entryX=0.409;entryY=-0.003;entryDx=0;entryDy=0;entryPerimeter=0;" edge="1" parent="WIyWlLk6GJQsqaUBKTNV-1" source="4Hm4KgzLQBeNy6C8HnnK-53" target="4Hm4KgzLQBeNy6C8HnnK-29">
          <mxGeometry relative="1" as="geometry" />
        </mxCell>
        <mxCell id="4Hm4KgzLQBeNy6C8HnnK-53" value="Extract of Account" style="rounded=0;whiteSpace=wrap;html=1;" vertex="1" parent="WIyWlLk6GJQsqaUBKTNV-1">
          <mxGeometry x="500" y="440" width="120" height="40" as="geometry" />
        </mxCell>
        <mxCell id="4Hm4KgzLQBeNy6C8HnnK-60" value="" style="endArrow=classic;html=1;entryX=1;entryY=0.25;entryDx=0;entryDy=0;" edge="1" parent="WIyWlLk6GJQsqaUBKTNV-1" target="4Hm4KgzLQBeNy6C8HnnK-1">
          <mxGeometry width="50" height="50" relative="1" as="geometry">
            <mxPoint x="750" y="60" as="sourcePoint" />
            <mxPoint x="610" y="100" as="targetPoint" />
          </mxGeometry>
        </mxCell>
      </root>
    </mxGraphModel>
  </diagram>
</mxfile>
